<svg xmlns="http://www.w3.org/2000/svg" viewBox="0 0 1055 778.24"><defs><style>.cls-1{fill:#553ef9;}.cls-2{fill:#d9e0f9;}.cls-3{fill:#a6b5ff;}.cls-4{fill:#f4d34d;}.cls-5{fill:#edb2a2;}.cls-6{fill:#fff;}.cls-7{fill:#fc543d;}.cls-8{fill:#9595fc;}.cls-9{fill:#fcbdb6;}.cls-10{fill:#f7e8a6;}.cls-11,.cls-12{fill:none;}.cls-11{stroke:#9595fc;stroke-linecap:round;stroke-linejoin:round;stroke-width:15px;}.cls-12{stroke:#553ef9;stroke-miterlimit:10;}</style></defs><g id="chair_center" data-name="chair center"><line class="cls-1" x1="580.21" y1="507.33" x2="537.21" y2="703.33"/><polygon class="cls-2" points="548.94 705.9 525.22 705.33 568.49 504.76 591.94 509.9 548.94 705.9"/><line class="cls-1" x1="718.21" y1="294.33" x2="675.21" y2="490.33"/><path class="cls-3" d="M748.94,576.9l-23.45-5.14,40.86-186.25A12.14,12.14,0,0,1,778.48,376h0A12.13,12.13,0,0,1,790,390.73Z" transform="translate(-59 -81)"/><line class="cls-1" x1="675.21" y1="507.33" x2="718.21" y2="703.33"/><polygon class="cls-2" points="706.49 705.9 663.49 509.9 688.48 509.62 731.48 705.62 706.49 705.9"/><rect class="cls-3" x="539.21" y="481.33" width="177" height="32" rx="16"/><line class="cls-1" x1="555.93" y1="614.94" x2="704.34" y2="614.94"/><rect class="cls-2" x="555.93" y="602.94" width="148.42" height="24"/></g><g id="Girl_center" data-name="Girl center"><path class="cls-4" d="M620.93,749.16s4.42,16.4-20.32,33.82l-32.73,24.87A10.26,10.26,0,0,0,565.13,821h0a10.25,10.25,0,0,0,13.24,4.33L659.7,786.8a8.2,8.2,0,0,0,4.42-9.51l-7-55-37.92-2.18Z" transform="translate(-59 -81)"/><rect class="cls-4" x="650" y="783" width="14" height="13" transform="translate(-315.84 239.61) rotate(-23.07)"/><path class="cls-2" d="M683,386s-26,21-36,35c-19.19,26.87-40,136-40,136l180-5s-14-116-22-129-37-46-42-51Z" transform="translate(-59 -81)"/><polygon class="cls-5" points="617.75 283.9 624.02 305.37 648.61 298.65 641.45 275.39 617.75 283.9"/><path class="cls-5" d="M672.05,296.6a38.54,38.54,0,0,0-28.21,50.07,6.26,6.26,0,0,1,.16,3.43l-3,13.09a.94.94,0,0,0,1.24,1.11l10-3.65a38.52,38.52,0,1,0,19.79-64Z" transform="translate(-59 -81)"/><path class="cls-6" d="M651.08,343c1.84-3.77,10-17.54,28.3-9.88a.84.84,0,0,1,.42,1.15c-1.65,3.22-9.09,14.89-28.19,9.9A.83.83,0,0,1,651.08,343Z" transform="translate(-59 -81)"/><circle class="cls-1" cx="606.33" cy="257.11" r="6.7"/><path class="cls-7" d="M737,393s-4.2,13.45,2,31.11a5.19,5.19,0,0,0,6.75,3.07l19.58-7.42a5.22,5.22,0,0,0,3-6.9A36.79,36.79,0,0,0,743,391Z" transform="translate(-59 -81)"/><path class="cls-7" d="M661,365a15.78,15.78,0,0,1,2.61-.39,9.34,9.34,0,0,0,5.33-3.79.35.35,0,0,1,.64.17c.15,3.17.18,6.4-1.16,9.22a.88.88,0,0,1-1.14.46C664.74,369.58,657.35,367.06,661,365Z" transform="translate(-59 -81)"/><path class="cls-2" d="M684.18,390.18l-4.48-6.7c-.78-1.16-1.59-2.52-1.19-3.86.48-1.62,2.41-2.24,4.07-2.58,5.79-1.2,11.76-2.15,17-5,3.08-1.66,5.8-3.92,8.86-5.62s6.67-2.83,10.05-1.93c1.39.37,2.85,1.29,3,2.72a4.11,4.11,0,0,1-1,2.68c-1.36,2-3,3.78-4.13,5.94s-1.45,4.89-.1,6.9Z" transform="translate(-59 -81)"/><path class="cls-7" d="M702.06,340.89c-2.13,10.05-3,20.65,0,30.49s19.07,20.95,29,23.62c11.66,3.14,12,4.4,16-7,3-8.61,4.27-27.82.31-36a40.79,40.79,0,0,0-11-14.54c-4.82-3.8-10-7.1-16.11-6.47,3.51-7.5,0-16.52-5.27-22.95a48.43,48.43,0,0,0-68.44-6.78c-4.93,4.07-9.14,9.35-10.6,15.57a13.77,13.77,0,0,0,.66,9.16c2.71,5.5,10.14,7.34,16,5.39s10.2-6.75,13.68-11.79C666.14,319.55,673,339,702.06,340.89Z" transform="translate(-59 -81)"/><circle class="cls-5" cx="634.5" cy="259.5" r="9.5"/><path class="cls-4" d="M534.06,740.92s-1,17-30,26l-39,13.64a10.39,10.39,0,0,0-6.76,11.71h0a10.2,10.2,0,0,0,11.24,8.24l89.51-11.63a8.29,8.29,0,0,0,7.19-7.72L577,726.42l-35.4-13.83Z" transform="translate(-59 -81)"/><rect class="cls-4" x="488" y="704" width="14" height="13"/><path class="cls-3" d="M621,557s-55,19-63,32c-6.9,11.21-38.31,106.38-46.85,132.43a5.15,5.15,0,0,0,4.76,6.76l60,1.7a5.16,5.16,0,0,0,5.12-3.8L616,599l60-41-63,38L599.58,724.49a5.06,5.06,0,0,0,5,5.59l57.72.85a5.07,5.07,0,0,0,5.13-4.65L677,611.93a15,15,0,0,1,8.09-11.56L749.17,584a16.91,16.91,0,0,0,12.7-15.19L763,553Z" transform="translate(-59 -81)"/><circle class="cls-5" cx="628.5" cy="414.5" r="23.5"/><circle class="cls-5" cx="554.5" cy="415.5" r="23.5"/><polygon class="cls-4" points="666.25 158.43 608.14 208.47 661.58 235.76 666.25 158.43"/></g><g id="decorative_elements" data-name="decorative elements"><rect class="cls-2" x="49.81" y="72.94" width="67.16" height="25.39" rx="12.7"/><rect class="cls-2" x="84.63" y="53.25" width="67.16" height="25.39" rx="12.7"/><rect class="cls-2" x="343.95" y="366.89" width="33.05" height="12.5" rx="6.25" transform="translate(661.95 665.27) rotate(-180)"/><rect class="cls-2" x="326.81" y="357.2" width="33.05" height="12.5" rx="6.25" transform="translate(627.67 645.9) rotate(-180)"/><circle class="cls-8" cx="632" cy="88" r="9"/><circle class="cls-9" cx="31" cy="187" r="9"/><circle class="cls-7" cx="648" cy="754" r="9"/><circle class="cls-10" cx="9" cy="516" r="9"/><rect class="cls-7" x="254.58" y="213.4" width="11.04" height="29" transform="translate(-143.97 169.67) rotate(-45)"/><rect class="cls-5" x="564.58" y="293.4" width="11.04" height="29" transform="translate(566.05 -418.7) rotate(66.49)"/><rect class="cls-1" x="932.58" y="298.4" width="11.04" height="29" transform="translate(92.75 831.56) rotate(-55.77)"/></g><g id="wreath"><path class="cls-3" d="M537.84,207.94a12.12,12.12,0,0,1-1.09-16.46h0a12.11,12.11,0,0,0-4.4-18.67,12.1,12.1,0,0,1-6.37-15.2,12.1,12.1,0,0,0-10.22-16.23h0a12.11,12.11,0,0,1-11-12.32,12.11,12.11,0,0,0-14.94-12h0A12.1,12.1,0,0,1,475.48,109h0a12.11,12.11,0,0,0-18-6.53h0a12.1,12.1,0,0,1-16.21-3,12.11,12.11,0,0,0-19.18-.32,12.11,12.11,0,0,1-16.31,2.44h0a12.11,12.11,0,0,0-18.24,5.93,12.11,12.11,0,0,1-14.63,7.61h0a12.11,12.11,0,0,0-15.33,11.53h0a12.1,12.1,0,0,1-11.37,11.94h0a12.11,12.11,0,0,0-10.75,15.88,12.11,12.11,0,0,1-6.87,15,12.11,12.11,0,0,0-5,18.52,12.1,12.1,0,0,1-1.63,16.4h0a12.11,12.11,0,0,0,1.26,19.14h0A12.1,12.1,0,0,1,327,239.55h0a12.11,12.11,0,0,0,7.41,17.69h0a12.11,12.11,0,0,1,8.79,13.95,12.11,12.11,0,0,0,12.76,14.33h0a12.11,12.11,0,0,1,12.84,10.34h0a12.11,12.11,0,0,0,16.71,9.41A12.11,12.11,0,0,1,401,310.88h0a12.1,12.1,0,0,0,18.86,3.47h0a12.1,12.1,0,0,1,16.49.27h0a12.11,12.11,0,0,0,19-2.84h0a12.11,12.11,0,0,1,15.68-5.1h0a12.11,12.11,0,0,0,17-8.85h0a12.12,12.12,0,0,1,13.18-9.91h0A12.1,12.1,0,0,0,514.39,274h0a12.12,12.12,0,0,1,9.24-13.66,12.1,12.1,0,0,0,8-17.43A12.12,12.12,0,0,1,535.94,227h0a12.1,12.1,0,0,0,1.9-19.08Zm-53.48,4.31a64.11,64.11,0,0,0-4.71,17.4,64,64,0,0,0-10,14.79,63.27,63.27,0,0,0-14.54,10.91A62.73,62.73,0,0,0,438,261a63,63,0,0,0-18-.34,63.19,63.19,0,0,0-17.09-6.17A64.05,64.05,0,0,0,389,243.25,63.84,63.84,0,0,0,379.34,228a64.31,64.31,0,0,0-4.13-17.55A64.1,64.1,0,0,0,377,192.5a64,64,0,0,0,7.44-16.13,62.93,62.93,0,0,0,12.68-13.29A62.87,62.87,0,0,0,413,154.82a63.29,63.29,0,0,0,9-.71,61.64,61.64,0,0,0,8.78-2,63,63,0,0,0,17.6,3.25,63,63,0,0,0,16,9,64,64,0,0,0,11.84,13.24,64.3,64.3,0,0,0,7,16.63A64.3,64.3,0,0,0,484.36,212.25Z" transform="translate(-59 -81)"/><path class="cls-7" d="M399.68,305.89a31,31,0,1,1,6.09-59.69l.17.07,28.27,11.34,1.89,21.67-21.31,19.79A30.89,30.89,0,0,1,399.68,305.89Zm-7.3-48.57a18.1,18.1,0,1,0,14.08,32l16.29-15.14-.66-7.54-20.85-8.37A18,18,0,0,0,392.38,257.32Z" transform="translate(-59 -81)"/><path class="cls-7" d="M484.94,294.84a30.94,30.94,0,0,1-16.45-2.08l-.33-.16-25.85-12.52-4.54-21.27,23.84-19.25a30.94,30.94,0,1,1,23.33,55.28ZM473.58,281a18.09,18.09,0,1,0-4.11-31.21L452,263.85l1.58,7.41Z" transform="translate(-59 -81)"/><rect class="cls-7" x="423.49" y="249.14" width="30.02" height="37.27" rx="8.28" transform="translate(-93.85 -13.03) rotate(-8.53)"/><circle class="cls-9" cx="347.18" cy="52.46" r="9.84"/><circle class="cls-4" cx="298.12" cy="95.3" r="9.84"/><circle class="cls-10" cx="425.26" cy="68.63" r="9.84"/><circle class="cls-9" cx="450.37" cy="129.89" r="9.84"/><circle class="cls-1" cx="295.9" cy="153.05" r="9.84"/><path class="cls-11" d="M357.18,132.83a85.53,85.53,0,0,1,30.22,34.22" transform="translate(-59 -81)"/><path class="cls-11" d="M447.94,103.28a87.6,87.6,0,0,1-9,45.81" transform="translate(-59 -81)"/><path class="cls-11" d="M526.25,164a91,91,0,0,1-39.93,27.27" transform="translate(-59 -81)"/><path class="cls-11" d="M371.45,204.43a90.92,90.92,0,0,1-48.3,2.32" transform="translate(-59 -81)"/></g><g id="food_and_candles" data-name="food and candles"><ellipse class="cls-7" cx="711" cy="397" rx="29" ry="22"/><circle class="cls-3" cx="335.5" cy="395.5" r="14.5"/><circle class="cls-3" cx="357.5" cy="395.5" r="14.5"/><circle class="cls-3" cx="379.5" cy="395.5" r="14.5"/><path class="cls-7" d="M600,413.33a29.35,29.35,0,0,1-4.8,15.2,26.47,26.47,0,0,1,0-30.4A29.4,29.4,0,0,1,600,413.33Z" transform="translate(-59 -81)"/><path class="cls-7" d="M636,441.33a29.35,29.35,0,0,1-4.8,15.2,26.47,26.47,0,0,1,0-30.4A29.4,29.4,0,0,1,636,441.33Z" transform="translate(-59 -81)"/><path class="cls-4" d="M529.27,343.33h13.89a1.06,1.06,0,0,1,1.06,1.06v77.94a0,0,0,0,1,0,0h-16a0,0,0,0,1,0,0V344.39A1.06,1.06,0,0,1,529.27,343.33Z"/><path class="cls-7" d="M567,446.33a29.35,29.35,0,0,1-4.8,15.2,26.47,26.47,0,0,1,0-30.4A29.4,29.4,0,0,1,567,446.33Z" transform="translate(-59 -81)"/><path class="cls-4" d="M495.74,377.33h15a.52.52,0,0,1,.52.52v45.48a0,0,0,0,1,0,0h-16a0,0,0,0,1,0,0V377.85A.52.52,0,0,1,495.74,377.33Z"/><path class="cls-4" d="M562.41,371.33H581a2.2,2.2,0,0,1,2.2,2.2v47.8a0,0,0,0,1,0,0h-23a0,0,0,0,1,0,0v-47.8A2.2,2.2,0,0,1,562.41,371.33Z"/><path class="cls-1" d="M508.21,421.67V389.31a2.19,2.19,0,0,0,2-2.18v-8.6a2.2,2.2,0,0,0-2.19-2.2H491.41a2.21,2.21,0,0,0-2.2,2.2v8.6a2.19,2.19,0,0,0,2,2.18v32.36a17.42,17.42,0,0,0-14,17.07v63.59h45V438.74A17.41,17.41,0,0,0,508.21,421.67Z" transform="translate(-59 -81)"/><path class="cls-4" d="M730.58,478a2.48,2.48,0,0,0-2.07,3.84l9,13.82a9,9,0,0,0,7.62,4.24H797.1a9,9,0,0,0,7.54-4.13l8.92-14a2.47,2.47,0,0,0-2.09-3.81Z" transform="translate(-59 -81)"/><path class="cls-4" d="M377.58,478a2.48,2.48,0,0,0-2.07,3.84l9.05,13.82a9,9,0,0,0,7.62,4.24H444.1a9,9,0,0,0,7.54-4.13l8.92-14a2.47,2.47,0,0,0-2.09-3.81Z" transform="translate(-59 -81)"/><circle class="cls-3" cx="449.5" cy="354.5" r="5.5"/></g><g id="boy"><path class="cls-1" d="M874.57,778.48l-72.43,36.68a6.55,6.55,0,0,0-3.43,6h0a6.22,6.22,0,0,0,6.09,6.34L910,824.87c3.86-.09,6.92-3.59,6.82-7.81l-.93-40.71Z" transform="translate(-59 -81)"/><polygon class="cls-7" points="793 525 801 699 876 696 863 519 793 525"/><path class="cls-7" d="M886.88,413.66l-5.71-1.34L891,370.45a5.72,5.72,0,0,1,7-4.21l12,3.18a2.92,2.92,0,0,1,2.09,3.58h0a2.93,2.93,0,0,1-3.59,2.09L896.66,372Z" transform="translate(-59 -81)"/><path class="cls-10" d="M894.7,488.69c0,2.92-10.52,5.31-23.5,5.34s-23.52-2.31-23.52-5.23,23.47-16.46,23.47-16.46S894.69,485.77,894.7,488.69Z" transform="translate(-59 -81)"/><path class="cls-10" d="M907.46,390.63a36.4,36.4,0,0,1-72.8.16Z" transform="translate(-59 -81)"/><rect class="cls-10" x="868.85" y="418.89" width="7.04" height="65.75" transform="translate(-60.04 -78.99) rotate(-0.13)"/><path class="cls-9" d="M900.42,405.05c-4.76,9.88-16.16,16.86-28.7,16.89-12.18,0-23.31-6.5-28.35-15.9Z" transform="translate(-59 -81)"/><polygon class="cls-5" points="972 325 968 347 993 352 997 328 972 325"/><path class="cls-5" d="M1058.26,343.27a38.54,38.54,0,0,0-47.64,32.15,6.3,6.3,0,0,1-1.39,3.14l-8.51,10.37a.94.94,0,0,0,.61,1.55l10.57,1.21a38.52,38.52,0,1,0,46.36-48.42Z" transform="translate(-59 -81)"/><path class="cls-6" d="M1018.72,375.4c3.33-2.55,16.81-11.21,29.73,3.83a.84.84,0,0,1-.13,1.22c-2.92,2.14-14.8,9.25-29.64-3.76A.84.84,0,0,1,1018.72,375.4Z" transform="translate(-59 -81)"/><circle class="cls-1" cx="974.67" cy="296.37" r="6.7"/><path class="cls-12" d="M1019.48,405.8a9.91,9.91,0,0,0,5.69-5" transform="translate(-59 -81)"/><path class="cls-4" d="M1025.16,363.19c-5.22,1.7-13.38-3.26-15.19-8.44s.55-11.35,5-14.5a16.19,16.19,0,0,1,15.7-1.11c4.5-4.34,10.2-7.78,16.44-8.18s12.93,2.84,15.28,8.63c5.94-2.14,12.91-2.06,18.24,1.32s8.43,10.43,6.26,16.36a17.46,17.46,0,0,1,12.25,15.1c.51,6.88-4.19,14-10.46,16.82,1.26,7.8.67,17.57-5.46,22.54s-17.54,3.28-21.62-3.49c-3.7-6.14-1-14.29,3.56-19.86-2.18,2.69-13.16-4.17-14.93-6.37-6.21-7.72-2.58-13.36-2.58-13.36S1032.92,375.1,1025.16,363.19Z" transform="translate(-59 -81)"/><path class="cls-1" d="M773.48,748.61l-81.16,2a6.55,6.55,0,0,0-5.7,4h0a6.22,6.22,0,0,0,2.77,8.35l96.11,42.85c3.53,1.58,7.8-.26,9.52-4.11l16.68-37.15Z" transform="translate(-59 -81)"/><path class="cls-7" d="M841.24,569.57l-96.09,171a3.54,3.54,0,0,0,1.66,5l71.28,31.07a3.54,3.54,0,0,0,4.6-1.71l73.78-146.3a6.41,6.41,0,0,1,5.78-3.63l146,1,13-67H859.36A20.81,20.81,0,0,0,841.24,569.57Z" transform="translate(-59 -81)"/><circle class="cls-5" cx="811.17" cy="399.32" r="24.72"/><path class="cls-1" d="M952,561l40.38-108.54A41.87,41.87,0,0,1,1032,424h0A41.87,41.87,0,0,1,1073,474.77L1048.5,587.13Z" transform="translate(-59 -81)"/><path class="cls-1" d="M969.13,495.1h0L919,473.83A23,23,0,0,0,889,485.48h0a23,23,0,0,0,13,31.11L968,541a20.32,20.32,0,0,0,12.87.41h0a20.27,20.27,0,0,0,10.94-8l40.66-57a21.82,21.82,0,0,0-7.62-32h0a21.82,21.82,0,0,0-28.6,7.69Z" transform="translate(-59 -81)"/><polygon class="cls-2" points="950.57 348.45 965.44 335 999.43 341 1007 359.94 950.57 348.45"/><path class="cls-2" d="M896.56,464.93l-20,42a1.1,1.1,0,0,0,.6,1.5L902,517.64a1.1,1.1,0,0,0,1.38-.59l18.14-42a1.09,1.09,0,0,0-.59-1.45l-23-9.2A1.1,1.1,0,0,0,896.56,464.93Z" transform="translate(-59 -81)"/><circle class="cls-1" cx="847" cy="398" r="4"/></g><g id="girl_L" data-name="girl L"><path class="cls-3" d="M166.45,320.13s-2.7,27.68,11.92,45.27l6.41-9.27S185,329,189,319C189,319,177.9,314.26,166.45,320.13Z" transform="translate(-59 -81)"/><path class="cls-3" d="M171,313.81l-23.2-4.29a1.76,1.76,0,0,0-2,2.21L153.16,338a1.77,1.77,0,0,0,3,.74l17.13-18a1.76,1.76,0,0,0,.39-1.78l-1.33-4A1.77,1.77,0,0,0,171,313.81Z" transform="translate(-59 -81)"/><path class="cls-3" d="M174.43,319.91l23.48,2.28a1.77,1.77,0,0,0,1.82-2.38l-9.64-25.56a1.77,1.77,0,0,0-3-.47l-15.51,19.4a1.75,1.75,0,0,0-.24,1.8l1.68,3.88A1.75,1.75,0,0,0,174.43,319.91Z" transform="translate(-59 -81)"/><polygon class="cls-5" points="336 595 390 706 349 730 291 617 336 595"/><polygon class="cls-5" points="299 613.18 300.78 736.61 253.47 740.93 248.92 614 299 613.18"/><path class="cls-1" d="M146,514l15.15,109.37,118.54,2.4a12.48,12.48,0,0,1,12.19,11.5L310,756l127-41S363,570,337,559s-115-9-115-9l-8-49s20-20,16-44-30-26-30-26l-5-18-28,1,1,9h0C131,442,142.18,484.51,146,514Z" transform="translate(-59 -81)"/><path class="cls-5" d="M435,768.09l86.85,1.65A7,7,0,0,1,528,774h0c1.59,3.49.28,7.5-2.92,8.95l-102.6,46.37c-3.77,1.7-8.34-.25-10.21-4.35L399,785.37l29.25-14Z" transform="translate(-59 -81)"/><rect class="cls-7" x="401.97" y="792.21" width="142" height="18" rx="9" transform="translate(-356.82 199.14) rotate(-25.39)"/><rect class="cls-7" x="440.54" y="774.78" width="45" height="18" rx="9" transform="translate(-327.07 1245.18) rotate(-96)"/><path class="cls-7" d="M504.21,765.63l1.67,17.44a9,9,0,0,1-8,9.89h0a9,9,0,0,1-9.89-8l-1.68-17.44a9,9,0,0,1,8-9.89h0A9,9,0,0,1,504.21,765.63Z" transform="translate(-59 -81)"/><path class="cls-5" d="M351.71,793.7l77.84,38.55a7,7,0,0,1,3.73,6.43h0c0,3.83-2.94,6.9-6.46,6.84l-112.58-1.84c-4.13-.06-7.43-3.78-7.37-8.29l4.9-41.42,32.44-.22Z" transform="translate(-59 -81)"/><rect class="cls-7" x="300.88" y="830.83" width="142" height="18" rx="9" transform="matrix(1, 0, 0, 1, -60.9, -80.15)"/><rect class="cls-7" x="347.83" y="810.83" width="45" height="18" rx="9" transform="translate(-584.77 818.03) rotate(-70.74)"/><path class="cls-7" d="M415.31,821l-5.93,16.48A9,9,0,0,1,397.92,843h0a9,9,0,0,1-5.53-11.47l5.92-16.48a9,9,0,0,1,11.47-5.53h0A9,9,0,0,1,415.31,821Z" transform="translate(-59 -81)"/><polygon class="cls-5" points="139.81 309.02 141.24 331.34 115.83 333.41 114.64 309.11 139.81 309.02"/><path class="cls-5" d="M179,324.56a38.65,38.65,0,0,1,41,24.23A38.22,38.22,0,0,1,222.6,362a6.26,6.26,0,0,0,1,3.28l7.25,11.29a.94.94,0,0,1-.78,1.47l-10.63,0A38.52,38.52,0,1,1,179,324.56Z" transform="translate(-59 -81)"/><path class="cls-6" d="M214.55,361.05c-3-2.92-15.39-13.08-30,.36a.85.85,0,0,0,0,1.23c2.66,2.47,13.63,10.9,29.88-.3A.84.84,0,0,0,214.55,361.05Z" transform="translate(-59 -81)"/><circle class="cls-1" cx="140.48" cy="280.28" r="6.7"/><path class="cls-12" d="M210.28,391.16a9.92,9.92,0,0,1-5.07-5.61" transform="translate(-59 -81)"/><circle class="cls-5" cx="254.6" cy="390.6" r="26.55"/><path class="cls-5" d="M308.32,495.52,208.17,544.4a10.29,10.29,0,0,1-13.64-4l-39.72-69.55a20.81,20.81,0,0,1,8.42-28.76h0a20.81,20.81,0,0,1,27.25,7.33l29.45,48.48,69.9-34Z" transform="translate(-59 -81)"/><path class="cls-7" d="M136.41,380.3a71.24,71.24,0,0,0,25.68,47.35C175.17,438.26,186.44,442.5,195,457c3.19,5.4,7.87,13.57,11,19s11.41,10.49,17.67,10.6c7.22.12,13.23-6.49,14.61-13.57A35.2,35.2,0,0,0,236,452c-5.71-12.88-15.68-24.48-26.17-33.88-12-10.81-22.52-18.68-29.83-33.12-5.05-10-2.14-19.61,2-30,12.12,4.09,19.36,1.11,30-6a22.31,22.31,0,0,0,7-8c3.79-7-.06-18-6.59-22.6S199,313.14,192,317c-1,.57-5.49,4.36-5.49,4.36a28.6,28.6,0,0,0-5.6-2.16c-13.67-2.09-32.16,5.48-38.91,17.8C133.83,351.92,134.61,363.17,136.41,380.3Z" transform="translate(-59 -81)"/></g><g id="table"><rect class="cls-10" x="271.89" y="441.24" width="499.93" height="47.1"/><rect class="cls-10" x="248.98" y="417.24" width="547.24" height="42"/><rect class="cls-10" x="723.9" y="468.33" width="25" height="307.63"/><rect class="cls-10" x="291.83" y="470.6" width="25" height="307.63"/><path class="cls-4" d="M444.53,571.71l24.46,41a10.24,10.24,0,0,1-3.54,14.05l-24.14,14.41a18.76,18.76,0,0,0-6.49,25.72h0a18.77,18.77,0,0,0,25.72,6.49L511,643.22a23.06,23.06,0,0,0,8-31.62l-36.69-61.44Z" transform="translate(-59 -81)"/><rect class="cls-2" x="437.4" y="555.78" width="57.11" height="22.16" rx="8.19" transform="translate(-283.71 238.02) rotate(-30.84)"/><path class="cls-5" d="M441.31,641.14l19.23,32.21h0a18.77,18.77,0,0,1-25.72-6.49h0a18.76,18.76,0,0,1,6.49-25.72Z" transform="translate(-59 -81)"/><polygon class="cls-5" points="382.31 560.14 419.07 582 438.19 570.59 400.61 549.22 382.31 560.14"/><polygon class="cls-5" points="410.81 496.47 453.88 520.39 438.59 494.77 425.45 487.73 410.81 496.47"/><path class="cls-5" d="M470.6,618.69,511,643.33l2.45-1.74c4.74-3.36,7.53-9.18,8.58-14.89l-68.33-39.62Z" transform="translate(-59 -81)"/><circle class="cls-2" cx="410" cy="449" r="7"/></g><g id="chair_R" data-name="chair R"><line class="cls-1" x1="894.21" y1="565.33" x2="851.21" y2="761.33"/><polygon class="cls-2" points="862.94 763.9 839.22 763.33 882.49 562.76 905.94 567.9 862.94 763.9"/><line class="cls-1" x1="1032.21" y1="352.33" x2="989.21" y2="548.33"/><polygon class="cls-2" points="1003.94 553.9 980.49 548.76 1023.49 352.76 1048.21 353.33 1003.94 553.9"/><line class="cls-1" x1="989.21" y1="565.33" x2="1032.21" y2="761.33"/><polygon class="cls-2" points="1020.49 763.9 977.49 567.9 1002.48 567.62 1045.48 763.62 1020.49 763.9"/><rect class="cls-3" x="853.21" y="539.33" width="177" height="32" rx="16"/><line class="cls-1" x1="869.93" y1="672.94" x2="1018.34" y2="672.94"/><rect class="cls-2" x="869.93" y="660.94" width="148.42" height="24"/></g><g id="chair_l" data-name="chair l"><line class="cls-1" x1="192.21" y1="568.33" x2="235.21" y2="764.33"/><polygon class="cls-2" points="223.49 766.9 247.22 766.33 203.94 565.76 180.49 570.9 223.49 766.9"/><line class="cls-1" x1="54.21" y1="355.33" x2="97.21" y2="551.33"/><polygon class="cls-2" points="81.49 556.9 104.94 551.76 61.94 355.76 37.22 356.33 81.49 556.9"/><line class="cls-1" x1="97.21" y1="568.33" x2="54.21" y2="764.33"/><polygon class="cls-2" points="65.94 766.9 108.94 570.9 83.95 570.62 40.95 766.62 65.94 766.9"/><rect class="cls-3" x="115.21" y="623.33" width="177" height="32" rx="16" transform="translate(348.43 1197.66) rotate(-180)"/><line class="cls-1" x1="216.5" y1="675.94" x2="68.09" y2="675.94"/><rect class="cls-2" x="68.09" y="663.94" width="148.42" height="24"/></g><g id="shelf"><rect class="cls-10" x="743" y="124.8" width="312" height="31.2" rx="14"/><polygon class="cls-10" points="809.86 184.97 787.57 184.97 777.54 142.63 799.83 142.63 809.86 184.97"/><polygon class="cls-10" points="1024.91 186.09 1002.63 186.09 992.6 143.74 1014.89 143.74 1024.91 186.09"/></g><g id="presents"><path class="cls-8" d="M993.27,144.3c-1.63-.9-3.29-1.75-4.94-2.61a97,97,0,0,1-14.44-8.57c-7.8-5.91-12.63-13.4-13.6-21.11-1.32-10.4,5-20.28,14.43-22.49a21.11,21.11,0,0,1,15.42,2.68,35.32,35.32,0,0,1,10.15,9.39,63.62,63.62,0,0,1,12.91,33l-11.1.94a52.34,52.34,0,0,0-10.64-27.19,24.64,24.64,0,0,0-6.93-6.56,10.19,10.19,0,0,0-7.26-1.46c-4.14,1-6.44,6.18-5.93,10.24.81,6.35,6.16,11.26,9.28,13.63a88.44,88.44,0,0,0,12.83,7.56c1.73.89,3.45,1.78,5.16,2.71Z" transform="translate(-59 -81)"/><path class="cls-8" d="M1022.42,144.3l-5.34-9.79c1.7-.93,3.43-1.82,5.15-2.71a88.56,88.56,0,0,0,12.84-7.56c3.12-2.37,8.47-7.28,9.28-13.63.51-4.06-1.8-9.27-5.93-10.24a10.18,10.18,0,0,0-7.26,1.46,24.8,24.8,0,0,0-6.94,6.56,52.3,52.3,0,0,0-10.63,27.19l-11.1-.94a63.51,63.51,0,0,1,12.91-33,35.33,35.33,0,0,1,10.15-9.39A21.09,21.09,0,0,1,1041,89.52c9.41,2.21,15.75,12.09,14.43,22.49-1,7.71-5.81,15.2-13.61,21.11a96.93,96.93,0,0,1-14.43,8.57C1025.7,142.55,1024.05,143.4,1022.42,144.3Z" transform="translate(-59 -81)"/><path class="cls-4" d="M891.2,117.73,860.72,82c-1.7-2-5.23-.91-5.23,1.59v34.11Z" transform="translate(-59 -81)"/><path class="cls-4" d="M878.82,118.89l30.49-35.71c1.69-2,5.23-.91,5.23,1.6v34.11Z" transform="translate(-59 -81)"/><rect class="cls-4" x="812.09" y="21.17" width="26.74" height="18.94"/><rect class="cls-7" x="785.34" y="35.66" width="82.46" height="89.14" rx="2.04"/><rect class="cls-4" x="785.34" y="75.77" width="82.46" height="4.46"/><rect class="cls-4" x="839.89" y="157.89" width="91.37" height="4.46" transform="translate(986.69 -806.46) rotate(90)"/><ellipse class="cls-8" cx="949.14" cy="50.7" rx="14.49" ry="7.24"/><rect class="cls-4" x="883.4" y="51.26" width="133.71" height="73.54"/><polygon class="cls-2" points="883.4 51.26 936.52 124.7 978.11 124.7 923.51 51.26 883.4 51.26"/><polygon class="cls-2" points="962.51 51.26 1016.75 124.7 1017.16 72.31 1002.63 51.26 962.51 51.26"/><polygon class="cls-2" points="883.4 124.8 900.53 124.68 883.4 99.17 883.4 124.8"/></g></svg>