<svg width="1031" height="218" viewBox="0 0 1031 218" fill="none" xmlns="http://www.w3.org/2000/svg">
<path d="M250.336 158V82.096H221.28V65.84H296.8V82.096H267.744V158H250.336ZM317.285 159.92C312.336 159.92 308.133 158.981 304.677 157.104C301.264 155.184 298.661 152.645 296.869 149.488C295.12 146.288 294.245 142.768 294.245 138.928C294.245 135.728 294.736 132.805 295.717 130.16C296.698 127.515 298.277 125.189 300.453 123.184C302.672 121.136 305.637 119.429 309.349 118.064C311.909 117.125 314.96 116.293 318.501 115.568C322.042 114.843 326.053 114.16 330.533 113.52C335.013 112.837 339.941 112.091 345.317 111.28L339.045 114.736C339.045 110.64 338.064 107.632 336.101 105.712C334.138 103.792 330.853 102.832 326.245 102.832C323.685 102.832 321.018 103.451 318.245 104.688C315.472 105.925 313.53 108.123 312.421 111.28L296.677 106.288C298.426 100.571 301.712 95.92 306.533 92.336C311.354 88.752 317.925 86.96 326.245 86.96C332.346 86.96 337.765 87.8987 342.501 89.776C347.237 91.6533 350.821 94.896 353.253 99.504C354.618 102.064 355.429 104.624 355.685 107.184C355.941 109.744 356.069 112.603 356.069 115.76V158H340.837V143.792L343.013 146.736C339.642 151.387 335.994 154.757 332.069 156.848C328.186 158.896 323.258 159.92 317.285 159.92ZM320.997 146.224C324.197 146.224 326.885 145.669 329.061 144.56C331.28 143.408 333.029 142.107 334.309 140.656C335.632 139.205 336.528 137.989 336.997 137.008C337.893 135.131 338.405 132.955 338.533 130.48C338.704 127.963 338.789 125.872 338.789 124.208L343.909 125.488C338.746 126.341 334.565 127.067 331.365 127.664C328.165 128.219 325.584 128.731 323.621 129.2C321.658 129.669 319.93 130.181 318.437 130.736C316.73 131.419 315.344 132.165 314.277 132.976C313.253 133.744 312.485 134.597 311.973 135.536C311.504 136.475 311.269 137.52 311.269 138.672C311.269 140.251 311.653 141.616 312.421 142.768C313.232 143.877 314.362 144.731 315.813 145.328C317.264 145.925 318.992 146.224 320.997 146.224ZM373.99 79.28V63.92H391.398V79.28H373.99ZM373.99 158V88.88H391.398V158H373.99ZM411.865 158V63.92H429.273V158H411.865ZM463.18 158L442.06 88.752L459.084 88.88L471.628 130.096L484.364 88.88H498.828L511.564 130.096L524.108 88.88H541.132L520.012 158H506.7L491.596 112.944L476.492 158H463.18ZM553.99 79.28V63.92H571.398V79.28H553.99ZM553.99 158V88.88H571.398V158H553.99ZM637.689 158V125.36C637.689 123.781 637.604 121.776 637.433 119.344C637.262 116.869 636.729 114.395 635.833 111.92C634.937 109.445 633.465 107.376 631.417 105.712C629.412 104.048 626.553 103.216 622.841 103.216C621.348 103.216 619.748 103.451 618.041 103.92C616.334 104.389 614.734 105.307 613.241 106.672C611.748 107.995 610.51 109.957 609.529 112.56C608.59 115.163 608.121 118.619 608.121 122.928L598.137 118.192C598.137 112.731 599.246 107.611 601.465 102.832C603.684 98.0533 607.012 94.192 611.449 91.248C615.929 88.304 621.561 86.832 628.345 86.832C633.764 86.832 638.18 87.7493 641.593 89.584C645.006 91.4187 647.652 93.744 649.529 96.56C651.449 99.376 652.814 102.32 653.625 105.392C654.436 108.421 654.926 111.195 655.097 113.712C655.268 116.229 655.353 118.064 655.353 119.216V158H637.689ZM590.457 158V88.88H605.945V111.792H608.121V158H590.457ZM698.742 159.92C692.385 159.92 686.817 158.32 682.038 155.12C677.259 151.92 673.526 147.568 670.838 142.064C668.193 136.56 666.87 130.352 666.87 123.44C666.87 116.4 668.214 110.149 670.902 104.688C673.633 99.184 677.451 94.8533 682.358 91.696C687.265 88.5387 693.025 86.96 699.638 86.96C706.209 86.96 711.734 88.56 716.214 91.76C720.694 94.96 724.086 99.312 726.39 104.816C728.694 110.32 729.846 116.528 729.846 123.44C729.846 130.352 728.673 136.56 726.326 142.064C724.022 147.568 720.566 151.92 715.958 155.12C711.35 158.32 705.611 159.92 698.742 159.92ZM701.558 144.432C705.441 144.432 708.534 143.557 710.838 141.808C713.185 140.059 714.87 137.605 715.894 134.448C716.918 131.291 717.43 127.621 717.43 123.44C717.43 119.259 716.918 115.589 715.894 112.432C714.87 109.275 713.227 106.821 710.966 105.072C708.747 103.323 705.825 102.448 702.198 102.448C698.315 102.448 695.115 103.408 692.598 105.328C690.123 107.205 688.289 109.744 687.094 112.944C685.899 116.101 685.302 119.6 685.302 123.44C685.302 127.323 685.878 130.864 687.03 134.064C688.182 137.221 689.953 139.739 692.342 141.616C694.731 143.493 697.803 144.432 701.558 144.432ZM717.43 158V110.64H715.254V65.84H732.79V158H717.43ZM781.814 159.92C774.859 159.92 768.758 158.363 763.51 155.248C758.262 152.133 754.166 147.845 751.222 142.384C748.321 136.88 746.87 130.565 746.87 123.44C746.87 116.229 748.363 109.893 751.35 104.432C754.337 98.928 758.454 94.64 763.702 91.568C768.95 88.496 774.987 86.96 781.814 86.96C788.769 86.96 794.87 88.5173 800.118 91.632C805.409 94.7467 809.526 99.056 812.47 104.56C815.414 110.021 816.886 116.315 816.886 123.44C816.886 130.608 815.393 136.944 812.406 142.448C809.462 147.909 805.345 152.197 800.054 155.312C794.806 158.384 788.726 159.92 781.814 159.92ZM781.814 143.664C787.403 143.664 791.563 141.787 794.294 138.032C797.067 134.235 798.454 129.371 798.454 123.44C798.454 117.296 797.046 112.389 794.23 108.72C791.457 105.051 787.318 103.216 781.814 103.216C778.017 103.216 774.902 104.069 772.47 105.776C770.038 107.483 768.225 109.851 767.03 112.88C765.878 115.909 765.302 119.429 765.302 123.44C765.302 129.627 766.689 134.555 769.462 138.224C772.278 141.851 776.395 143.664 781.814 143.664ZM843.18 158L822.06 88.752L839.084 88.88L851.628 130.096L864.364 88.88H878.828L891.564 130.096L904.108 88.88H921.132L900.012 158H886.7L871.596 112.944L856.492 158H843.18Z" fill="#363A5D"/>
<rect x="941" y="68" width="88" height="88" rx="23" stroke="#363A5D" stroke-width="4"/>
<path d="M988.444 87.8649H994.231V119.509C994.231 122.776 993.461 125.693 991.921 128.26C990.396 130.811 988.242 132.826 985.457 134.304C982.672 135.766 979.405 136.497 975.656 136.497C971.906 136.497 968.639 135.766 965.855 134.304C963.07 132.826 960.907 130.811 959.367 128.26C957.843 125.693 957.08 122.776 957.08 119.509V87.8649H962.868V119.042C962.868 121.375 963.381 123.452 964.408 125.273C965.435 127.077 966.897 128.501 968.795 129.543C970.709 130.57 972.996 131.083 975.656 131.083C978.316 131.083 980.603 130.57 982.517 129.543C984.43 128.501 985.893 127.077 986.904 125.273C987.931 123.452 988.444 121.375 988.444 119.042V87.8649Z" fill="#363A5D"/>
<path d="M1011.58 87.8649V135.657H1005.79V87.8649H1011.58Z" fill="#363A5D"/>
<rect y="75" width="150" height="164.724" rx="40" transform="rotate(-30 0 75)" fill="url(#paint0_linear)"/>
<g filter="url(#filter0_d)">
<path fill-rule="evenodd" clip-rule="evenodd" d="M112.104 58.3875L100.118 65.3077C95.1175 68.1945 93.4648 74.5862 96.3537 79.5899L103.333 91.6788C106.241 96.7144 112.582 98.4436 117.582 95.5567L129.568 88.6365C134.533 85.7702 136.241 79.3935 133.334 74.3579L126.354 62.2689C123.466 57.2652 117.068 55.5211 112.104 58.3875ZM59.1944 88.9348L71.1805 82.0146C76.1806 79.1277 82.5423 80.8923 85.4312 85.896L92.4108 97.9849C95.3181 103.021 93.6449 109.377 88.6448 112.264L76.6586 119.184C71.694 122.05 65.3173 120.342 62.41 115.306L55.4304 103.217C52.5415 98.2133 54.2297 91.8011 59.1944 88.9348ZM82.6774 129.609L94.6636 122.688C99.6637 119.802 106.007 121.534 108.914 126.57L115.894 138.659C118.781 143.659 117.128 150.051 112.128 152.937L100.142 159.858C95.177 162.724 88.7799 160.98 85.893 155.98L78.9135 143.891C76.0062 138.855 77.7128 132.475 82.6774 129.609ZM123.601 105.982L135.587 99.0613C140.552 96.195 146.93 97.9072 149.838 102.943L156.817 115.032C159.704 120.032 158.016 126.444 153.051 129.31L141.065 136.231C136.065 139.117 129.703 137.353 126.816 132.353L119.837 120.264C116.929 115.228 118.601 108.868 123.601 105.982Z" fill="white"/>
</g>
<defs>
<filter id="filter0_d" x="1.18701" y="40.1871" width="175.871" height="175.871" filterUnits="userSpaceOnUse" color-interpolation-filters="sRGB">
<feFlood flood-opacity="0" result="BackgroundImageFix"/>
<feColorMatrix in="SourceAlpha" type="matrix" values="0 0 0 0 0 0 0 0 0 0 0 0 0 0 0 0 0 0 127 0"/>
<feOffset dx="-17" dy="19"/>
<feGaussianBlur stdDeviation="16"/>
<feColorMatrix type="matrix" values="0 0 0 0 0.0291667 0 0 0 0 0.0291667 0 0 0 0 0.0291667 0 0 0 0.25 0"/>
<feBlend mode="normal" in2="BackgroundImageFix" result="effect1_dropShadow"/>
<feBlend mode="normal" in="SourceGraphic" in2="effect1_dropShadow" result="shape"/>
</filter>
<linearGradient id="paint0_linear" x1="150" y1="75" x2="-33.3134" y2="131.349" gradientUnits="userSpaceOnUse">
<stop stop-color="#41A0FF"/>
<stop offset="1" stop-color="#0A84FF"/>
</linearGradient>
</defs>
</svg>
